<?xml version="1.0" standalone="no"?>
<!DOCTYPE svg PUBLIC "-//W3C//DTD SVG 20010904//EN"
 "http://www.w3.org/TR/2001/REC-SVG-20010904/DTD/svg10.dtd">
<svg version="1.0" xmlns="http://www.w3.org/2000/svg"
 width="260.000000pt" height="260.000000pt" viewBox="0 0 260.000000 260.000000"
 preserveAspectRatio="xMidYMid meet">
<metadata>
Created by potrace 1.11, written by Peter Selinger 2001-2013
</metadata>
<g transform="translate(0.000000,260.000000) scale(0.100000,-0.100000)"
fill="#000000" stroke="none">
<path d="M2050 2018 l0 -132 -32 32 c-66 63 -143 77 -218 40 -87 -44 -133
-155 -106 -257 16 -61 35 -92 81 -126 74 -57 174 -53 241 10 32 31 34 31 34
10 0 -25 29 -55 53 -55 19 0 24 44 7 55 -6 4 -10 108 -10 281 l0 274 -25 0
-25 0 0 -132z m-77 -111 c60 -36 77 -70 77 -152 0 -85 -21 -125 -79 -155 -51
-26 -94 -25 -140 1 -83 46 -114 152 -69 239 45 87 132 114 211 67z"/>
<path d="M510 1835 l0 -295 25 0 25 0 2 242 3 242 106 -185 c77 -133 111 -184
124 -184 13 0 48 51 124 184 l106 185 3 -242 2 -242 25 0 25 0 0 296 0 295
-27 -3 c-24 -3 -41 -26 -138 -195 -61 -106 -114 -195 -117 -198 -3 -4 -57 84
-119 194 -105 184 -116 200 -141 201 l-28 0 0 -295z"/>
<path d="M1330 1964 c-111 -48 -164 -185 -116 -299 57 -135 230 -175 337 -77
44 39 47 48 19 57 -15 5 -26 0 -40 -18 -28 -36 -95 -60 -142 -52 -47 8 -105
56 -124 102 -28 65 -33 63 171 63 l185 0 0 38 c-1 139 -161 242 -290 186z
m150 -46 c30 -15 53 -37 67 -63 43 -76 44 -75 -137 -75 -181 0 -180 -1 -137
75 24 43 91 85 137 85 14 0 46 -10 70 -22z"/>
<path d="M510 835 l0 -295 25 0 25 0 2 242 3 242 106 -185 c75 -131 111 -184
124 -184 13 0 48 53 124 184 l106 184 3 -241 2 -242 25 0 25 0 0 296 0 295
-27 -3 c-24 -3 -41 -26 -138 -195 -61 -106 -114 -195 -117 -198 -3 -4 -57 84
-119 194 -105 184 -116 200 -141 201 l-28 0 0 -295z"/>
<path d="M1330 964 c-97 -42 -152 -149 -129 -254 35 -165 229 -232 350 -122
44 39 47 48 19 57 -15 5 -26 0 -40 -18 -28 -36 -95 -60 -142 -52 -47 8 -105
56 -124 102 -28 65 -33 63 171 63 l185 0 0 35 c0 72 -55 155 -125 186 -48 22
-118 24 -165 3z m150 -46 c30 -15 53 -37 67 -63 43 -76 44 -75 -137 -75 -179
0 -176 -1 -140 70 42 83 126 110 210 68z"/>
</g>
</svg>
